<svg xmlns="http://www.w3.org/2000/svg" version="1.1" xmlns:xlink="http://www.w3.org/1999/xlink" xmlns:svgjs="http://svgjs.dev/svgjs" width="1500" height="1500" viewBox="0 0 1500 1500"><rect width="1500" height="1500" fill="#ffffff"></rect><g transform="matrix(0.6666666666666666,0,0,0.6666666666666666,249.55826274264098,626.3013333333332)"><svg viewBox="0 0 300 74" data-background-color="#fafafa" preserveAspectRatio="xMidYMid meet" height="370" width="1500" xmlns="http://www.w3.org/2000/svg" xmlns:xlink="http://www.w3.org/1999/xlink"><g id="tight-bounds" transform="matrix(1,0,0,1,0.13252117720770684,0.10960000000000036)"><svg viewBox="0 0 299.7349576455846 73.7808" height="73.7808" width="299.7349576455846"><g><svg viewBox="0 0 299.7349576455846 73.7808" height="73.7808" width="299.7349576455846"><g><svg viewBox="0 0 299.7349576455846 73.7808" height="73.7808" width="299.7349576455846"><g id="textblocktransform"><svg viewBox="0 0 299.7349576455846 73.7808" height="73.7808" width="299.7349576455846" id="textblock"><g><svg viewBox="0 0 299.7349576455846 73.7808" height="73.7808" width="299.7349576455846"><g><svg><g></g><g></g></svg></g><g><svg><g><svg></svg></g><g></g></svg></g><g id="text-0"><svg viewBox="0 0 299.7349576455846 73.7808" height="73.7808" width="299.7349576455846"><g transform="matrix(1,0,0,1,0,0)"><svg width="196.587" viewBox="5.65 -41.55 121.49 45.59999999999999" height="73.7808" data-palette-color="#3d9970"><path d="M26-20.85L26-20.85Q27.6-20.85 28.53-19.95 29.45-19.05 29.45-17.45L29.45-17.45Q29.45-17.05 29.4-16.63 29.35-16.2 29.2-15.9L29.2-15.9Q28.55-16 27.75-16.07 26.95-16.15 25.85-16.15L25.85-16.15Q23.6-16.15 21.35-15.75 19.1-15.35 17.05-15.1L17.05-15.1Q14.8-9.8 13.35-5.15 11.9-0.5 11.1 4.05L11.1 4.05Q9.4 3.65 8.1 2.6 6.8 1.55 5.65-0.35L5.65-0.35Q6-1.15 6.5-2.27 7-3.4 7.7-5.13 8.4-6.85 9.38-9.33 10.35-11.8 11.7-15.25L11.7-15.25Q9.6-15.95 8.95-17.7L8.95-17.7Q9.2-17.95 10.35-18.28 11.5-18.6 13.15-19L13.15-19Q13.9-20.95 14.45-22.48 15-24 15.45-25.38 15.9-26.75 16.28-28.08 16.65-29.4 16.95-30.9L16.95-30.9 16.7-30.9Q14.8-30.9 13.63-31.8 12.45-32.7 12.45-34.15L12.45-34.15Q12.45-34.55 12.58-35.1 12.7-35.65 12.9-36.05L12.9-36.05Q13.85-35.9 14.78-35.85 15.7-35.8 17.2-35.8L17.2-35.8Q20.35-35.8 23.1-35.98 25.85-36.15 28.08-36.35 30.3-36.55 31.9-36.73 33.5-36.9 34.35-36.9L34.35-36.9Q35.5-36.9 36.4-35.7 37.3-34.5 37.8-32.3L37.8-32.3Q36.2-32.45 35.23-32.5 34.25-32.55 33.5-32.55L33.5-32.55Q30.95-32.55 28.83-32.33 26.7-32.1 24.8-31.8L24.8-31.8Q24.5-31.35 24.13-30.65 23.75-29.95 23.15-28.68 22.55-27.4 21.63-25.35 20.7-23.3 19.3-20.15L19.3-20.15Q21.25-20.45 23.03-20.65 24.8-20.85 26-20.85ZM37.6 1.75L37.6 1.75Q34.75 1.45 33.05-0.75 31.35-2.95 31.35-6.35L31.35-6.35Q31.35-8.35 31.95-10.5 32.55-12.65 33.65-14.68 34.75-16.7 36.25-18.5 37.75-20.3 39.5-21.6L39.5-21.6Q42.25-23.65 44.65-23.65L44.65-23.65Q46.25-22.8 47.8-20.1L47.8-20.1Q48.05-20.1 48.25-20.13 48.45-20.15 48.7-20.15L48.7-20.15Q51.35-20.15 51.35-15.45L51.35-15.45Q51.35-12.3 50.32-9.47 49.3-6.65 47.47-4.35 45.65-2.05 43.12-0.48 40.6 1.1 37.6 1.75ZM40.15-14L40.15-14Q39.3-12.85 38.55-11.5 37.8-10.15 37.25-8.78 36.7-7.4 36.4-6.13 36.1-4.85 36.1-3.85L36.1-3.85Q36.1-2.65 36.5-1.55 36.9-0.45 37.4-0.3L37.4-0.3Q39.65-0.8 41.52-2.18 43.4-3.55 44.77-5.6 46.15-7.65 46.92-10.25 47.7-12.85 47.7-15.8L47.7-15.8Q47.7-17.1 47.55-17.85 47.4-18.6 47.05-19.15L47.05-19.15Q44.85-18.5 43.12-17.05 41.4-15.6 40.15-14ZM59.65 1.75L59.65 1.75Q56.8 1.45 55.1-0.75 53.4-2.95 53.4-6.35L53.4-6.35Q53.4-8.35 54-10.5 54.6-12.65 55.7-14.68 56.8-16.7 58.3-18.5 59.8-20.3 61.55-21.6L61.55-21.6Q64.3-23.65 66.7-23.65L66.7-23.65Q68.3-22.8 69.84-20.1L69.84-20.1Q70.09-20.1 70.3-20.13 70.5-20.15 70.75-20.15L70.75-20.15Q73.4-20.15 73.4-15.45L73.4-15.45Q73.4-12.3 72.37-9.47 71.34-6.65 69.52-4.35 67.7-2.05 65.17-0.48 62.65 1.1 59.65 1.75ZM62.2-14L62.2-14Q61.35-12.85 60.6-11.5 59.85-10.15 59.3-8.78 58.75-7.4 58.45-6.13 58.15-4.85 58.15-3.85L58.15-3.85Q58.15-2.65 58.55-1.55 58.95-0.45 59.45-0.3L59.45-0.3Q61.7-0.8 63.57-2.18 65.45-3.55 66.82-5.6 68.2-7.65 68.97-10.25 69.75-12.85 69.75-15.8L69.75-15.8Q69.75-17.1 69.59-17.85 69.45-18.6 69.09-19.15L69.09-19.15Q66.9-18.5 65.17-17.05 63.45-15.6 62.2-14ZM86.69-23.35L86.69-23.35Q87.69-23.35 88.99-22.75 90.29-22.15 91.29-21.2L91.29-21.2Q91.04-23.2 90.67-24.98 90.29-26.75 89.57-28.65 88.84-30.55 87.64-32.8 86.44-35.05 84.64-37.95L84.64-37.95Q84.79-38.4 85.32-39 85.84-39.6 86.52-40.13 87.19-40.65 87.92-41.05 88.64-41.45 89.29-41.55L89.29-41.55Q90.69-40 91.94-37.68 93.19-35.35 94.14-32.68 95.09-30 95.62-27.15 96.14-24.3 96.14-21.7L96.14-21.7Q96.14-19.1 95.57-16.35 94.99-13.6 93.97-10.98 92.94-8.35 91.59-6 90.24-3.65 88.67-1.8 87.09 0.05 85.39 1.23 83.69 2.4 81.99 2.7L81.99 2.7Q78.54 2.3 76.72 0.48 74.89-1.35 74.89-4.55L74.89-4.55Q74.89-6.25 75.42-8.25 75.94-10.25 76.82-12.23 77.69-14.2 78.87-16.07 80.04-17.95 81.37-19.45 82.69-20.95 84.04-22 85.39-23.05 86.69-23.35ZM81.59 0.7L81.59 0.7Q83.34 0.1 85.09-1.95 86.84-4 88.24-6.78 89.64-9.55 90.52-12.73 91.39-15.9 91.39-18.85L91.39-18.85Q91.39-19.7 91.39-19.9 91.39-20.1 91.34-20.3L91.34-20.3Q90.14-19.8 88.79-18.6 87.44-17.4 86.09-15.83 84.74-14.25 83.54-12.4 82.34-10.55 81.39-8.7 80.44-6.85 79.89-5.15 79.34-3.45 79.34-2.15L79.34-2.15Q79.34 0.35 81.59 0.7ZM97.49-3.35L97.49-3.35Q97.49-3.8 97.57-4.48 97.64-5.15 97.84-6.28 98.04-7.4 98.37-9 98.69-10.6 99.19-12.85L99.19-12.85Q99.29-13.35 99.64-14.45 99.99-15.55 100.57-16.78 101.14-18 101.97-19.15 102.79-20.3 103.94-20.85L103.94-20.85Q104.79-20.65 106.19-19.83 107.59-19 108.59-17.55L108.59-17.55Q107.44-16.25 106.67-14.95 105.89-13.65 105.27-12.25 104.64-10.85 104.12-9.35 103.59-7.85 102.94-6.2L102.94-6.2Q102.39-4.8 101.94-3.33 101.49-1.85 101.44-0.75L101.44-0.75Q101.44 0.15 101.42 0.53 101.39 0.9 101.14 0.9L101.14 0.9Q100.94 0.9 100.34 0.65 99.74 0.4 99.12-0.13 98.49-0.65 97.99-1.45 97.49-2.25 97.49-3.35ZM107.04-25.05L107.04-25.05Q107.04-25.35 107.19-25.95L107.19-25.95Q106.94-26.2 106.77-26.7 106.59-27.2 106.59-27.6L106.59-27.6Q106.59-28.05 106.72-28.83 106.84-29.6 107.04-30.5 107.24-31.4 107.54-32.38 107.84-33.35 108.14-34.15L108.14-34.15Q108.74-34.15 109.62-33.83 110.49-33.5 111.39-32.98 112.29-32.45 113.04-31.83 113.79-31.2 114.19-30.65L114.19-30.65Q113.64-30.1 112.74-29.13 111.84-28.15 110.99-27.08 110.14-26 109.44-25.05 108.74-24.1 108.54-23.7L108.54-23.7Q107.94-23.8 107.49-24.23 107.04-24.65 107.04-25.05ZM127.14-20.7L127.14-20.7Q126.94-17.6 126.04-15.38 125.14-13.15 123.46-11.48 121.79-9.8 119.39-8.45 116.99-7.1 113.79-5.85L113.79-5.85Q113.79-5.55 113.76-5.23 113.74-4.9 113.74-4.55L113.74-4.55Q113.74-3.9 113.84-3.2 113.94-2.5 114.19-1.9 114.44-1.3 114.89-0.93 115.34-0.55 116.04-0.55L116.04-0.55Q117.39-0.55 118.69-1.15 119.99-1.75 121.16-2.63 122.34-3.5 123.36-4.53 124.39-5.55 125.19-6.4L125.19-6.4Q125.69-5.95 126.04-5.55L126.04-5.55Q123.79-2.55 121.11-0.58 118.44 1.4 116.04 1.95L116.04 1.95Q112.59 1.55 110.66-0.58 108.74-2.7 108.74-5.7L108.74-5.7Q108.74-7.75 109.31-9.88 109.89-12 110.91-13.98 111.94-15.95 113.31-17.7 114.69-19.45 116.26-20.75 117.84-22.05 119.51-22.8 121.19-23.55 122.84-23.55L122.84-23.55Q125.14-23.25 127.14-20.7ZM123.69-19.05L123.69-19.05Q122.34-18.85 120.89-17.95 119.44-17.05 118.16-15.55 116.89-14.05 115.84-12.05 114.79-10.05 114.19-7.75L114.19-7.75Q118.19-9.75 120.84-12.68 123.49-15.6 123.69-19.05Z" opacity="1" transform="matrix(1,0,0,1,0,0)" fill="#000000" class="wordmark-text-0" data-fill-palette-color="primary"></path></svg></g><g><svg xmlns="http://www.w3.org/2000/svg" xmlns:xlink="http://www.w3.org/1999/xlink" version="1.1" x="214.00619999999998" y="0" viewBox="0 13.812999999999999 100.144 86.187" enable-background="new 0 0 100 100" xml:space="preserve" width="85.72875764558461" height="73.7808" class="icon-cg-0" data-fill-palette-color="accent" id="cg-0"><g fill="#e77917" data-fill-palette-color="accent"><polygon points="0,77.814 22.185,100 77.854,100 100.144,77.711  " fill="#000000" data-fill-palette-color="accent"></polygon><path d="M62.554 56.12l-1.133 14.35-1.15-14.613c-2.646-0.262-5.472-0.41-8.444-0.457l-1.088 13.787L49.65 55.379c-3.322 0.012-6.438 0.168-9.363 0.443L39.132 70.47l-1.134-14.396C8.799 59.564 0 75.092 0 75.092h100.144C100.144 75.092 91.429 59.707 62.554 56.12z" fill="#000000" data-fill-palette-color="accent"></path></g><path d="M50.244 29.826c4.733 5.409 7.072 13.771 2.108 18.735 4.491-11.11-7.328-13.001-7.328-22.693 0.945-9.81 7.092-12.055 7.092-12.055S45.279 24.153 50.244 29.826z" fill="#000000" data-fill-palette-color="accent"></path></svg></g></svg></g></svg></g></svg></g></svg></g></svg></g><defs></defs></svg><rect width="299.7349576455846" height="73.7808" fill="none" stroke="none" visibility="hidden"></rect></g></svg></g></svg>